General
Complete name                            : 
Format                                   : WinCzechav - CzechMegaSwingers 17 - PART3 -xcell0
File size                                : 500 MiB
Duration                                 : 21mn 18s
Overall bit rate                         : 3 281 Kbps
Maximum Overall bit rate                 : 3 128 Kbps
Encoded date                             : UTC 1970-01-01 00:00:00.000
WM/EncodingSettings                      : Lavf54.3.100

Video
ID                                       : 1
Format                                   : WMV2
Codec ID                                 : WMV2
Codec ID/Info                            : Windows Media Video 8
Description of the codec                 : wmv2
Duration                                 : 21mn 18s
Bit rate                                 : 3 014 Kbps
Width                                    : 1 280 pixels
Height                                   : 720 pixels
Display aspect ratio                     : 16:9
Frame rate                               : 25.000 fps
Bit depth                                : 8 bits
Bits/(Pixel*Frame)                       : 0.131
Stream size                              : 459 MiB (92%)

Audio
ID                                       : 2
Format                                   : WMA
Format version                           : Version 2
Codec ID                                 : 161
Codec ID/Info                            : Windows Media Audio
Description of the codec                 : Windows Media Audio V8
Duration                                 : 21mn 18s
Bit rate                                 : 128 Kbps
Channel(s)                               : 2 channels
Sampling rate                            : 48.0 KHz
Bit depth                                : 16 bits
Stream size                              : 19.5 MiB (4%)